<?xml version="1.0" encoding="UTF-8" standalone="no"?>
<svg
   id="Flat"
   viewBox="0 0 512 512"
   version="1.1"
   sodipodi:docname="clicking-hand-2.svg"
   inkscape:version="1.3.2 (091e20e, 2023-11-25)"
   width="512"
   height="512"
   xmlns:inkscape="http://www.inkscape.org/namespaces/inkscape"
   xmlns:sodipodi="http://sodipodi.sourceforge.net/DTD/sodipodi-0.dtd"
   xmlns="http://www.w3.org/2000/svg"
   xmlns:svg="http://www.w3.org/2000/svg">
  <defs
     id="defs2" />
  <sodipodi:namedview
     id="namedview2"
     pagecolor="#ffffff"
     bordercolor="#999999"
     borderopacity="1"
     inkscape:showpageshadow="2"
     inkscape:pageopacity="0"
     inkscape:pagecheckerboard="true"
     inkscape:deskcolor="#d1d1d1"
     showgrid="false"
     inkscape:zoom="1.7885866"
     inkscape:cx="230.06993"
     inkscape:cy="205.74905"
     inkscape:window-width="1800"
     inkscape:window-height="1097"
     inkscape:window-x="0"
     inkscape:window-y="44"
     inkscape:window-maximized="1"
     inkscape:current-layer="Flat">
    <inkscape:grid
       id="grid3"
       units="px"
       originx="0"
       originy="0"
       spacingx="1"
       spacingy="1"
       empcolor="#0099e5"
       empopacity="0.30196078"
       color="#0099e5"
       opacity="0.14901961"
       empspacing="5"
       dotted="false"
       gridanglex="30"
       gridanglez="30"
       visible="false" />
  </sodipodi:namedview>
  <circle
     style="fill:#fffa65;fill-opacity:1;stroke:none;stroke-width:13.8384;stroke-linecap:round;stroke-dasharray:none;opacity:0.69798658"
     id="path5"
     cx="244.29118"
     cy="144"
     r="69.079506"
     inkscape:label="path5" />
  <path
     d="m 325.62448,220 a 23.90984,23.90984 0 0 0 -16.59912,6.69092 23.97782,23.97782 0 0 0 -39.40088,-12.56006 V 168 a 24,24 0 0 0 -48,0 v 106.33789 l -14.46387,-25.05127 a 23.99966,23.99966 0 0 0 -41.65234,23.85352 C 197.22604,340.03711 218.16548,368 265.62448,368 a 84.0953,84.0953 0 0 0 84,-84 v -40 a 24.02718,24.02718 0 0 0 -24,-24 z"
     fill="#ffffff"
     style="display:inline"
     id="path1" />
  <path
     d="m 325.62448,220 a 23.90984,23.90984 0 0 0 -16.59912,6.69092 23.97782,23.97782 0 0 0 -39.40088,-12.56006 V 168 a 24,24 0 0 0 -48,0 v 106.33789 l -14.46387,-25.05127 a 23.99966,23.99966 0 0 0 -41.65234,23.85352 C 197.22604,340.03711 218.16548,368 265.62448,368 a 84.0953,84.0953 0 0 0 84,-84 v -40 a 24.02718,24.02718 0 0 0 -24,-24 z m 16,64 a 76.08614,76.08614 0 0 1 -76,76 c -36.96875,0 -56.56934,-13.66162 -92.9541,-90.42676 -0.0459,-0.0976 -0.0967,-0.19336 -0.15039,-0.28662 a 16.000033,16.000033 0 1 1 27.71289,-16 l 21.92773,37.97949 a 3.99985,3.99985 0 0 0 7.46387,-2 V 168 a 16,16 0 0 1 32,0 v 68 a 4,4 0 0 0 8,0 v -4 a 16,16 0 0 1 32,0 v 12 a 4,4 0 0 0 8,0 16,16 0 0 1 32,0 z"
     style="display:inline"
     id="path2" />
</svg>
