<?xml version="1.0" encoding="UTF-8" standalone="no"?>
<svg
   id="Flat"
   viewBox="0 0 256 256"
   version="1.1"
   sodipodi:docname="hand-pointing-edited.svg"
   inkscape:version="1.3.2 (091e20e, 2023-11-25)"
   xmlns:inkscape="http://www.inkscape.org/namespaces/inkscape"
   xmlns:sodipodi="http://sodipodi.sourceforge.net/DTD/sodipodi-0.dtd"
   xmlns="http://www.w3.org/2000/svg"
   xmlns:svg="http://www.w3.org/2000/svg">
  <path
     d="M 188,88 A 23.90984,23.90984 0 0 0 171.40088,94.69092 23.97782,23.97782 0 0 0 132,82.13086 V 36 A 24,24 0 0 0 84,36 V 142.33789 L 69.53613,117.28662 A 23.99966,23.99966 0 0 0 27.88379,141.14014 C 59.60156,208.03711 80.541,236 128,236 a 84.0953,84.0953 0 0 0 84,-84 V 112 A 24.02718,24.02718 0 0 0 188,88 Z"
     fill="white"
     style="display:inline" />
  <path
     d="M 188,88 A 23.90984,23.90984 0 0 0 171.40088,94.69092 23.97782,23.97782 0 0 0 132,82.13086 V 36 A 24,24 0 0 0 84,36 V 142.33789 L 69.53613,117.28662 A 23.99966,23.99966 0 0 0 27.88379,141.14014 C 59.60156,208.03711 80.541,236 128,236 a 84.0953,84.0953 0 0 0 84,-84 V 112 A 24.02718,24.02718 0 0 0 188,88 Z m 16,64 a 76.08614,76.08614 0 0 1 -76,76 C 91.03125,228 71.43066,214.33838 35.0459,137.57324 35,137.47559 34.94922,137.37988 34.89551,137.28662 a 16.000033,16.000033 0 1 1 27.71289,-16 l 21.92773,37.97949 a 3.99985,3.99985 0 0 0 7.46387,-2 V 36 a 16,16 0 0 1 32,0 v 68 a 4,4 0 0 0 8,0 v -4 a 16,16 0 0 1 32,0 v 12 a 4,4 0 0 0 8,0 16,16 0 0 1 32,0 z"
     style="display:inline" />
</svg>
